<svg xmlns="http://www.w3.org/2000/svg" class="plot-d6a7b5" fill="currentColor" font-family="system-ui, sans-serif" font-size="10" text-anchor="middle" width="640" height="320" viewBox="0 0 640 320"><style>:where(.plot-d6a7b5) {
  --plot-background: white;
  display: block;
  height: auto;
  height: intrinsic;
  max-width: 100%;
}
:where(.plot-d6a7b5 text),
:where(.plot-d6a7b5 tspan) {
  white-space: pre;
}</style><g aria-label="y-grid" aria-hidden="true" stroke="currentColor" stroke-opacity="0.1"><line x1="70" x2="620" y1="277.95441608186655" y2="277.95441608186655"/><line x1="70" x2="620" y1="274.08598278599476" y2="274.08598278599476"/><line x1="70" x2="620" y1="270.8152690376532" y2="270.8152690376532"/><line x1="70" x2="620" y1="267.98204791802107" y2="267.98204791802107"/><line x1="70" x2="620" y1="265.48296977918676" y2="265.48296977918676"/><line x1="70" x2="620" y1="263.24746820708486" y2="263.24746820708486"/><line x1="70" x2="620" y1="248.54052033230317" y2="248.54052033230317"/><line x1="70" x2="620" y1="239.9375073254952" y2="239.9375073254952"/><line x1="70" x2="620" y1="233.8335724575215" y2="233.8335724575215"/><line x1="70" x2="620" y1="229.0989927465853" y2="229.0989927465853"/><line x1="70" x2="620" y1="225.23055945071354" y2="225.23055945071354"/><line x1="70" x2="620" y1="221.95984570237192" y2="221.95984570237192"/><line x1="70" x2="620" y1="219.12662458273985" y2="219.12662458273985"/><line x1="70" x2="620" y1="216.62754644390554" y2="216.62754644390554"/><line x1="70" x2="620" y1="214.3920448718036" y2="214.3920448718036"/><line x1="70" x2="620" y1="199.685096997022" y2="199.685096997022"/><line x1="70" x2="620" y1="191.082083990214" y2="191.082083990214"/><line x1="70" x2="620" y1="184.97814912224032" y2="184.97814912224032"/><line x1="70" x2="620" y1="180.24356941130407" y2="180.24356941130407"/><line x1="70" x2="620" y1="176.3751361154323" y2="176.3751361154323"/><line x1="70" x2="620" y1="173.1044223670907" y2="173.1044223670907"/><line x1="70" x2="620" y1="170.27120124745863" y2="170.27120124745863"/><line x1="70" x2="620" y1="167.77212310862433" y2="167.77212310862433"/><line x1="70" x2="620" y1="165.53662153652243" y2="165.53662153652243"/><line x1="70" x2="620" y1="150.82967366174074" y2="150.82967366174074"/><line x1="70" x2="620" y1="142.22666065493277" y2="142.22666065493277"/><line x1="70" x2="620" y1="136.12272578695908" y2="136.12272578695908"/><line x1="70" x2="620" y1="131.3881460760229" y2="131.3881460760229"/><line x1="70" x2="620" y1="127.51971278015112" y2="127.51971278015112"/><line x1="70" x2="620" y1="124.24899903180948" y2="124.24899903180948"/><line x1="70" x2="620" y1="121.4157779121774" y2="121.4157779121774"/><line x1="70" x2="620" y1="118.91669977334311" y2="118.91669977334311"/><line x1="70" x2="620" y1="116.68119820124123" y2="116.68119820124123"/><line x1="70" x2="620" y1="101.97425032645954" y2="101.97425032645954"/><line x1="70" x2="620" y1="93.37123731965156" y2="93.37123731965156"/><line x1="70" x2="620" y1="87.26730245167786" y2="87.26730245167786"/><line x1="70" x2="620" y1="82.53272274074165" y2="82.53272274074165"/><line x1="70" x2="620" y1="78.66428944486988" y2="78.66428944486988"/><line x1="70" x2="620" y1="75.39357569652829" y2="75.39357569652829"/><line x1="70" x2="620" y1="72.5603545768962" y2="72.5603545768962"/><line x1="70" x2="620" y1="70.06127643806195" y2="70.06127643806195"/><line x1="70" x2="620" y1="67.82577486595999" y2="67.82577486595999"/><line x1="70" x2="620" y1="53.11882699117835" y2="53.11882699117835"/><line x1="70" x2="620" y1="44.515813984370396" y2="44.515813984370396"/><line x1="70" x2="620" y1="38.41187911639662" y2="38.41187911639662"/><line x1="70" x2="620" y1="33.677299405460445" y2="33.677299405460445"/><line x1="70" x2="620" y1="29.808866109588667" y2="29.808866109588667"/><line x1="70" x2="620" y1="26.538152361247075" y2="26.538152361247075"/><line x1="70" x2="620" y1="23.70493124161501" y2="23.70493124161501"/><line x1="70" x2="620" y1="21.20585310278071" y2="21.20585310278071"/></g><g aria-label="y-axis tick" aria-hidden="true" fill="none" stroke="currentColor"><path transform="translate(70,277.95441608186655)" d="M0,0L-6,0"/><path transform="translate(70,274.08598278599476)" d="M0,0L-6,0"/><path transform="translate(70,270.8152690376532)" d="M0,0L-6,0"/><path transform="translate(70,267.98204791802107)" d="M0,0L-6,0"/><path transform="translate(70,265.48296977918676)" d="M0,0L-6,0"/><path transform="translate(70,263.24746820708486)" d="M0,0L-6,0"/><path transform="translate(70,248.54052033230317)" d="M0,0L-6,0"/><path transform="translate(70,239.9375073254952)" d="M0,0L-6,0"/><path transform="translate(70,233.8335724575215)" d="M0,0L-6,0"/><path transform="translate(70,229.0989927465853)" d="M0,0L-6,0"/><path transform="translate(70,225.23055945071354)" d="M0,0L-6,0"/><path transform="translate(70,221.95984570237192)" d="M0,0L-6,0"/><path transform="translate(70,219.12662458273985)" d="M0,0L-6,0"/><path transform="translate(70,216.62754644390554)" d="M0,0L-6,0"/><path transform="translate(70,214.3920448718036)" d="M0,0L-6,0"/><path transform="translate(70,199.685096997022)" d="M0,0L-6,0"/><path transform="translate(70,191.082083990214)" d="M0,0L-6,0"/><path transform="translate(70,184.97814912224032)" d="M0,0L-6,0"/><path transform="translate(70,180.24356941130407)" d="M0,0L-6,0"/><path transform="translate(70,176.3751361154323)" d="M0,0L-6,0"/><path transform="translate(70,173.1044223670907)" d="M0,0L-6,0"/><path transform="translate(70,170.27120124745863)" d="M0,0L-6,0"/><path transform="translate(70,167.77212310862433)" d="M0,0L-6,0"/><path transform="translate(70,165.53662153652243)" d="M0,0L-6,0"/><path transform="translate(70,150.82967366174074)" d="M0,0L-6,0"/><path transform="translate(70,142.22666065493277)" d="M0,0L-6,0"/><path transform="translate(70,136.12272578695908)" d="M0,0L-6,0"/><path transform="translate(70,131.3881460760229)" d="M0,0L-6,0"/><path transform="translate(70,127.51971278015112)" d="M0,0L-6,0"/><path transform="translate(70,124.24899903180948)" d="M0,0L-6,0"/><path transform="translate(70,121.4157779121774)" d="M0,0L-6,0"/><path transform="translate(70,118.91669977334311)" d="M0,0L-6,0"/><path transform="translate(70,116.68119820124123)" d="M0,0L-6,0"/><path transform="translate(70,101.97425032645954)" d="M0,0L-6,0"/><path transform="translate(70,93.37123731965156)" d="M0,0L-6,0"/><path transform="translate(70,87.26730245167786)" d="M0,0L-6,0"/><path transform="translate(70,82.53272274074165)" d="M0,0L-6,0"/><path transform="translate(70,78.66428944486988)" d="M0,0L-6,0"/><path transform="translate(70,75.39357569652829)" d="M0,0L-6,0"/><path transform="translate(70,72.5603545768962)" d="M0,0L-6,0"/><path transform="translate(70,70.06127643806195)" d="M0,0L-6,0"/><path transform="translate(70,67.82577486595999)" d="M0,0L-6,0"/><path transform="translate(70,53.11882699117835)" d="M0,0L-6,0"/><path transform="translate(70,44.515813984370396)" d="M0,0L-6,0"/><path transform="translate(70,38.41187911639662)" d="M0,0L-6,0"/><path transform="translate(70,33.677299405460445)" d="M0,0L-6,0"/><path transform="translate(70,29.808866109588667)" d="M0,0L-6,0"/><path transform="translate(70,26.538152361247075)" d="M0,0L-6,0"/><path transform="translate(70,23.70493124161501)" d="M0,0L-6,0"/><path transform="translate(70,21.20585310278071)" d="M0,0L-6,0"/></g><g aria-label="y-axis tick label" text-anchor="end" font-variant="tabular-nums" transform="translate(-9,0)"><text y="0.32em" transform="translate(70,277.95441608186655)"/><text y="0.32em" transform="translate(70,274.08598278599476)"/><text y="0.32em" transform="translate(70,270.8152690376532)"/><text y="0.32em" transform="translate(70,267.98204791802107)"/><text y="0.32em" transform="translate(70,265.48296977918676)"/><text y="0.32em" transform="translate(70,263.24746820708486)">1k</text><text y="0.32em" transform="translate(70,248.54052033230317)"/><text y="0.32em" transform="translate(70,239.9375073254952)"/><text y="0.32em" transform="translate(70,233.8335724575215)"/><text y="0.32em" transform="translate(70,229.0989927465853)"/><text y="0.32em" transform="translate(70,225.23055945071354)"/><text y="0.32em" transform="translate(70,221.95984570237192)"/><text y="0.32em" transform="translate(70,219.12662458273985)"/><text y="0.32em" transform="translate(70,216.62754644390554)"/><text y="0.32em" transform="translate(70,214.3920448718036)">10k</text><text y="0.32em" transform="translate(70,199.685096997022)"/><text y="0.32em" transform="translate(70,191.082083990214)"/><text y="0.32em" transform="translate(70,184.97814912224032)"/><text y="0.32em" transform="translate(70,180.24356941130407)"/><text y="0.32em" transform="translate(70,176.3751361154323)"/><text y="0.32em" transform="translate(70,173.1044223670907)"/><text y="0.32em" transform="translate(70,170.27120124745863)"/><text y="0.32em" transform="translate(70,167.77212310862433)"/><text y="0.32em" transform="translate(70,165.53662153652243)">100k</text><text y="0.32em" transform="translate(70,150.82967366174074)"/><text y="0.32em" transform="translate(70,142.22666065493277)"/><text y="0.32em" transform="translate(70,136.12272578695908)"/><text y="0.32em" transform="translate(70,131.3881460760229)"/><text y="0.32em" transform="translate(70,127.51971278015112)"/><text y="0.32em" transform="translate(70,124.24899903180948)"/><text y="0.32em" transform="translate(70,121.4157779121774)"/><text y="0.32em" transform="translate(70,118.91669977334311)"/><text y="0.32em" transform="translate(70,116.68119820124123)">1M</text><text y="0.32em" transform="translate(70,101.97425032645954)"/><text y="0.32em" transform="translate(70,93.37123731965156)"/><text y="0.32em" transform="translate(70,87.26730245167786)"/><text y="0.32em" transform="translate(70,82.53272274074165)"/><text y="0.32em" transform="translate(70,78.66428944486988)"/><text y="0.32em" transform="translate(70,75.39357569652829)"/><text y="0.32em" transform="translate(70,72.5603545768962)"/><text y="0.32em" transform="translate(70,70.06127643806195)"/><text y="0.32em" transform="translate(70,67.82577486595999)">10M</text><text y="0.32em" transform="translate(70,53.11882699117835)"/><text y="0.32em" transform="translate(70,44.515813984370396)"/><text y="0.32em" transform="translate(70,38.41187911639662)"/><text y="0.32em" transform="translate(70,33.677299405460445)"/><text y="0.32em" transform="translate(70,29.808866109588667)"/><text y="0.32em" transform="translate(70,26.538152361247075)"/><text y="0.32em" transform="translate(70,23.70493124161501)"/><text y="0.32em" transform="translate(70,21.20585310278071)"/></g><g aria-label="y-axis label" text-anchor="start" transform="translate(-67,-17)"><text y="0.71em" transform="translate(70,20)">↑ Cost per genome (USD)</text></g><g aria-label="x-axis tick" aria-hidden="true" fill="none" stroke="currentColor"><path transform="translate(78.89095004637605,280)" d="M0,0L0,6"/><path transform="translate(132.0908970451835,280)" d="M0,0L0,6"/><path transform="translate(185.36372068371537,280)" d="M0,0L0,6"/><path transform="translate(238.56366768252286,280)" d="M0,0L0,6"/><path transform="translate(291.8364913210547,280)" d="M0,0L0,6"/><path transform="translate(345.0364383198622,280)" d="M0,0L0,6"/><path transform="translate(398.3092619583941,280)" d="M0,0L0,6"/><path transform="translate(451.50920895720157,280)" d="M0,0L0,6"/><path transform="translate(504.78203259573337,280)" d="M0,0L0,6"/><path transform="translate(557.9819795945409,280)" d="M0,0L0,6"/><path transform="translate(611.2548032330727,280)" d="M0,0L0,6"/></g><g aria-label="x-axis tick label" font-variant="tabular-nums" transform="translate(0,9)"><text y="0.71em" transform="translate(78.89095004637605,280)">2002</text><text y="0.71em" transform="translate(132.0908970451835,280)">2004</text><text y="0.71em" transform="translate(185.36372068371537,280)">2006</text><text y="0.71em" transform="translate(238.56366768252286,280)">2008</text><text y="0.71em" transform="translate(291.8364913210547,280)">2010</text><text y="0.71em" transform="translate(345.0364383198622,280)">2012</text><text y="0.71em" transform="translate(398.3092619583941,280)">2014</text><text y="0.71em" transform="translate(451.50920895720157,280)">2016</text><text y="0.71em" transform="translate(504.78203259573337,280)">2018</text><text y="0.71em" transform="translate(557.9819795945409,280)">2020</text><text y="0.71em" transform="translate(611.2548032330727,280)">2022</text></g><g aria-label="x-axis label" text-anchor="end" transform="translate(17,37)"><text transform="translate(620,280)"> →</text></g><g aria-label="rule" stroke="#e5e7eb"><line x1="70" x2="620" y1="263.24746820708486" y2="263.24746820708486"/><line x1="70" x2="620" y1="214.3920448718036" y2="214.3920448718036"/><line x1="70" x2="620" y1="165.53662153652243" y2="165.53662153652243"/><line x1="70" x2="620" y1="116.68119820124123" y2="116.68119820124123"/><line x1="70" x2="620" y1="67.82577486595999" y2="67.82577486595999"/></g><g aria-label="line" fill="none" stroke="#2563eb" stroke-width="2.5" stroke-linejoin="round" stroke-linecap="round"><path d="M70,20L83.191,26.485L96.6,29.303L109.791,32.142L125.386,38.328L132.091,45.396L138.723,52.654L145.354,53.189L152.059,54.751L158.764,55.91L165.323,57.643L171.954,57.616L178.659,60.99L185.364,62.946L191.923,64.436L198.554,64.943L205.259,66.842L211.964,69.119L218.523,69.951L225.154,70.233L231.859,74.951L238.564,92.925L245.195,110.267L251.827,122.726L258.532,139.415L265.237,147.613L271.795,156.277L278.427,163.891L285.132,173.004L291.836,181.659L298.395,190.039L305.027,190.301L311.732,191.734L318.436,198.688L324.995,203.496L331.627,213.363L338.332,219.818L345.036,220.031L351.668,225.583L358.3,225.285L365.005,223.149L371.709,226.426L378.268,226.884L384.9,226.884L391.605,228.695L398.309,233.791L404.868,229.439L411.5,229.507L418.205,226.204L424.909,233.994L431.468,232.744L438.1,256.673L444.805,258.593L460.327,259.812L467.032,254.535L473.737,256.789L480.441,262.924L486.927,257.142L493.632,260.58L500.337,250.263L507.041,258.816L513.527,255.172L520.232,255.112L526.937,256.235L533.641,263.394L540.127,273.864L546.832,264.512L553.537,270.956L560.241,272.564L566.8,270.768L573.505,271.165L580.209,277.452L586.914,266.675L593.4,280L600.105,275.468L606.809,275.848L613.514,276.934L620,276.934"/></g><g aria-label="tip" fill="var(--plot-background)" stroke="currentColor" pointer-events="none" text-anchor="start"/></svg>