<svg xmlns="http://www.w3.org/2000/svg" class="plot-d6a7b5" fill="currentColor" font-family="system-ui, sans-serif" font-size="10" text-anchor="middle" width="640" height="320" viewBox="0 0 640 320"><style>:where(.plot-d6a7b5) {
  --plot-background: white;
  display: block;
  height: auto;
  height: intrinsic;
  max-width: 100%;
}
:where(.plot-d6a7b5 text),
:where(.plot-d6a7b5 tspan) {
  white-space: pre;
}</style><g aria-label="y-grid" aria-hidden="true" stroke="currentColor" stroke-opacity="0.1"><line x1="55" x2="620" y1="280" y2="280"/><line x1="55" x2="620" y1="249.25260170293282" y2="249.25260170293282"/><line x1="55" x2="620" y1="218.50520340586567" y2="218.50520340586567"/><line x1="55" x2="620" y1="187.75780510879852" y2="187.75780510879852"/><line x1="55" x2="620" y1="157.01040681173131" y2="157.01040681173131"/><line x1="55" x2="620" y1="126.26300851466416" y2="126.26300851466416"/><line x1="55" x2="620" y1="95.51561021759699" y2="95.51561021759699"/><line x1="55" x2="620" y1="64.7682119205298" y2="64.7682119205298"/><line x1="55" x2="620" y1="34.02081362346264" y2="34.02081362346264"/></g><g aria-label="y-axis tick" aria-hidden="true" fill="none" stroke="currentColor"><path transform="translate(55,280)" d="M0,0L-6,0"/><path transform="translate(55,249.25260170293282)" d="M0,0L-6,0"/><path transform="translate(55,218.50520340586567)" d="M0,0L-6,0"/><path transform="translate(55,187.75780510879852)" d="M0,0L-6,0"/><path transform="translate(55,157.01040681173131)" d="M0,0L-6,0"/><path transform="translate(55,126.26300851466416)" d="M0,0L-6,0"/><path transform="translate(55,95.51561021759699)" d="M0,0L-6,0"/><path transform="translate(55,64.7682119205298)" d="M0,0L-6,0"/><path transform="translate(55,34.02081362346264)" d="M0,0L-6,0"/></g><g aria-label="y-axis tick label" text-anchor="end" font-variant="tabular-nums" transform="translate(-9,0)"><text y="0.32em" transform="translate(55,280)">0</text><text y="0.32em" transform="translate(55,249.25260170293282)">50</text><text y="0.32em" transform="translate(55,218.50520340586567)">100</text><text y="0.32em" transform="translate(55,187.75780510879852)">150</text><text y="0.32em" transform="translate(55,157.01040681173131)">200</text><text y="0.32em" transform="translate(55,126.26300851466416)">250</text><text y="0.32em" transform="translate(55,95.51561021759699)">300</text><text y="0.32em" transform="translate(55,64.7682119205298)">350</text><text y="0.32em" transform="translate(55,34.02081362346264)">400</text></g><g aria-label="y-axis label" text-anchor="start" transform="translate(-52,-17)"><text y="0.71em" transform="translate(55,20)">↑ PPM</text></g><g aria-label="x-axis tick" aria-hidden="true" fill="none" stroke="currentColor"><path transform="translate(67.55555555555556,280)" d="M0,0L0,6"/><path transform="translate(130.33333333333334,280)" d="M0,0L0,6"/><path transform="translate(193.1111111111111,280)" d="M0,0L0,6"/><path transform="translate(255.8888888888889,280)" d="M0,0L0,6"/><path transform="translate(318.66666666666663,280)" d="M0,0L0,6"/><path transform="translate(381.4444444444444,280)" d="M0,0L0,6"/><path transform="translate(444.2222222222222,280)" d="M0,0L0,6"/><path transform="translate(507,280)" d="M0,0L0,6"/><path transform="translate(569.7777777777778,280)" d="M0,0L0,6"/></g><g aria-label="x-axis tick label" font-variant="tabular-nums" transform="translate(0,9)"><text y="0.71em" transform="translate(67.55555555555556,280)">1,980</text><text y="0.71em" transform="translate(130.33333333333334,280)">1,985</text><text y="0.71em" transform="translate(193.1111111111111,280)">1,990</text><text y="0.71em" transform="translate(255.8888888888889,280)">1,995</text><text y="0.71em" transform="translate(318.66666666666663,280)">2,000</text><text y="0.71em" transform="translate(381.4444444444444,280)">2,005</text><text y="0.71em" transform="translate(444.2222222222222,280)">2,010</text><text y="0.71em" transform="translate(507,280)">2,015</text><text y="0.71em" transform="translate(569.7777777777778,280)">2,020</text></g><g aria-label="x-axis label" text-anchor="end" transform="translate(17,37)"><text transform="translate(620,280)"> →</text></g><g aria-label="rule" stroke="#e5e7eb"><line x1="55" x2="620" y1="280" y2="280"/></g><g aria-label="area" fill="#2563eb" fill-opacity="0.14"><path d="M55,72.849L67.556,71.588L80.111,70.85L92.667,70.395L105.222,69.362L117.778,68.415L130.333,67.511L142.889,66.632L155.444,65.58L168,64.055L180.556,63.053L193.111,62.272L205.667,61.447L218.222,61.023L230.778,60.568L243.333,59.646L255.889,58.508L268.444,57.432L281,56.749L293.556,55.114L306.111,53.828L318.667,53.109L331.222,52.119L343.778,50.883L356.333,49.308L368.889,48.195L381.444,46.947L394,45.606L406.556,44.536L419.111,43.233L431.667,42.323L444.222,40.939L456.778,39.789L469.333,38.541L481.889,36.85L494.444,35.657L507,34.236L519.556,32.133L532.111,30.817L544.667,29.335L557.222,27.828L569.778,26.371L582.333,24.981L594.889,23.518L607.444,22.109L620,20L620,280L607.444,280L594.889,280L582.333,280L569.778,280L557.222,280L544.667,280L532.111,280L519.556,280L507,280L494.444,280L481.889,280L469.333,280L456.778,280L444.222,280L431.667,280L419.111,280L406.556,280L394,280L381.444,280L368.889,280L356.333,280L343.778,280L331.222,280L318.667,280L306.111,280L293.556,280L281,280L268.444,280L255.889,280L243.333,280L230.778,280L218.222,280L205.667,280L193.111,280L180.556,280L168,280L155.444,280L142.889,280L130.333,280L117.778,280L105.222,280L92.667,280L80.111,280L67.556,280L55,280Z"/></g><g aria-label="line" fill="none" stroke="#2563eb" stroke-width="2.5" stroke-linejoin="round" stroke-linecap="round"><path d="M55,72.849L67.556,71.588L80.111,70.85L92.667,70.395L105.222,69.362L117.778,68.415L130.333,67.511L142.889,66.632L155.444,65.58L168,64.055L180.556,63.053L193.111,62.272L205.667,61.447L218.222,61.023L230.778,60.568L243.333,59.646L255.889,58.508L268.444,57.432L281,56.749L293.556,55.114L306.111,53.828L318.667,53.109L331.222,52.119L343.778,50.883L356.333,49.308L368.889,48.195L381.444,46.947L394,45.606L406.556,44.536L419.111,43.233L431.667,42.323L444.222,40.939L456.778,39.789L469.333,38.541L481.889,36.85L494.444,35.657L507,34.236L519.556,32.133L532.111,30.817L544.667,29.335L557.222,27.828L569.778,26.371L582.333,24.981L594.889,23.518L607.444,22.109L620,20"/></g><g aria-label="tip" fill="var(--plot-background)" stroke="currentColor" pointer-events="none" text-anchor="start"/></svg>